<svg xmlns="http://www.w3.org/2000/svg" version="1.1" xmlns:xlink="http://www.w3.org/1999/xlink" xmlns:svgjs="http://svgjs.dev/svgjs" width="1000" height="1000" viewBox="0 0 1000 1000"><g transform="matrix(1,0,0,1,0,0)"><svg viewBox="0 0 280 280" data-background-color="#ffffff" preserveAspectRatio="xMidYMid meet" height="1000" width="1000" xmlns="http://www.w3.org/2000/svg" xmlns:xlink="http://www.w3.org/1999/xlink"><g id="tight-bounds" transform="matrix(1,0,0,1,0,0)"><svg viewBox="0 0 280 280" height="280" width="280"><g><svg viewBox="0 0 280 280" height="280" width="280"><g><svg viewBox="0 0 280 280" height="280" width="280"><g id="textblocktransform"><svg viewBox="0 0 280 280" height="280" width="280" id="textblock"><g><svg viewBox="0 0 280 280" height="280" width="280"><g transform="matrix(1,0,0,1,74.00336708925556,74.00336708925556)"><svg viewBox="0 0 131.99326582148888 131.99326582148888" height="131.99326582148888" width="131.99326582148888"><g><circle r="66" cx="65.99663291074444" cy="65.99663291074444" fill="#87c0cd" data-fill-palette-color="accent"></circle></g></svg></g><g><path d="M151.387 274.64L150.037 280 128.577 279.881 128.662 278.952 145.281 254.394 134.316 254.333C132.97 254.326 131.918 254.75 131.16 255.605 130.402 256.454 130.021 257.345 130.016 258.278V258.278L128.858 258.041 129.267 252.676 150.028 252.791 149.943 253.72 133.254 278.198 144.989 278.263C146.362 278.27 147.577 277.844 148.635 276.983 149.686 276.116 150.24 275.256 150.298 274.404V274.404Z" fill="#87c0cd" data-fill-palette-color="secondary"></path><path d="M151.588 22.152L150.279 27.597 128.519 27.72 128.593 26.77 145.165 1.686 134.05 1.749C132.684 1.757 131.62 2.196 130.859 3.066 130.104 3.937 129.729 4.845 129.735 5.792V5.792L128.554 5.568 128.913 0.118 149.964 0 149.889 0.95 133.237 25.954 145.142 25.887C146.534 25.879 147.761 25.432 148.823 24.547 149.884 23.661 150.439 22.785 150.487 21.918V21.918Z" fill="#113f67" data-fill-palette-color="primary"></path><path d="M3.507 144.671C3.507 138.849 8.227 134.129 14.049 134.129 19.872 134.129 24.592 138.849 24.592 144.671 24.592 150.494 19.872 155.214 14.049 155.214 8.227 155.214 3.507 150.494 3.507 144.671ZM255.408 144.671C255.408 138.849 260.128 134.129 265.951 134.129 271.773 134.129 276.493 138.849 276.493 144.671 276.493 150.494 271.773 155.214 265.951 155.214 260.128 155.214 255.408 150.494 255.408 144.671Z" fill="#113f67" data-fill-palette-color="primary"></path></g></svg></g></svg></g></svg></g></svg></g><defs></defs></svg><rect width="280" height="280" fill="none" stroke="none" visibility="hidden"></rect></g></svg></g></svg>